<svg width="94" height="100" viewBox="0 0 94 100" fill="none" xmlns="http://www.w3.org/2000/svg">
<circle cx="53.0356" cy="22.729" r="21.352" fill="#FF7143"/>
<circle cx="33.7478" cy="75.0759" r="24.1071" fill="#28D2AE"/>
<path d="M93.5841 91.8141L79.8954 55.7723C79.693 55.2397 79.1826 54.8875 78.6128 54.8873L59.4923 54.8833L68.9048 39.9592C71.5237 35.8036 72.9081 31.0012 72.9081 26.0712C72.9079 11.6955 61.2124 0 46.8367 0C32.4609 0 20.7654 11.6955 20.7654 26.0712C20.7654 31.0024 22.1504 35.805 24.7707 39.9596C24.8408 40.071 34.1774 54.8782 34.1774 54.8782L15.0594 54.8742C14.4891 54.8742 13.9785 55.2266 13.7763 55.7593L6.35726 75.3029C6.08831 76.0114 6.44471 76.8038 7.15312 77.0728C7.31339 77.1337 7.47787 77.1624 7.63978 77.1624C8.19322 77.1624 8.71483 76.8251 8.92285 76.2769L16.0056 57.6187L35.9078 57.6229L37.6384 60.3674L32.6991 60.3663C32.0397 60.3663 31.4737 60.8351 31.3507 61.4827L28.675 75.5795C28.5987 75.9809 28.7055 76.3957 28.9662 76.7105C29.227 77.0254 29.6145 77.2076 30.0232 77.2076H63.65C64.0587 77.2076 64.4462 77.0254 64.7067 76.7105C64.9672 76.3957 65.0743 75.9811 64.998 75.5793L62.3224 61.4871C62.1995 60.8396 61.6334 60.3709 60.9744 60.3709H56.0311L57.7613 57.6275L77.6655 57.6317L90.3123 90.9291H3.36062L6.79562 81.8805C7.06457 81.1719 6.70817 80.3795 5.99976 80.1106C5.29154 79.8413 4.49879 80.1978 4.23003 80.9064L0.0893674 91.8143C-0.0707192 92.236 -0.013454 92.7095 0.242867 93.0807C0.499006 93.4519 0.921269 93.6735 1.37226 93.6735H92.3014C92.7526 93.6735 93.1747 93.4517 93.431 93.0805C93.6868 92.7093 93.7442 92.2358 93.5841 91.8141ZM27.0919 38.4956C24.7486 34.7799 23.5098 30.4836 23.5098 26.0712C23.5098 13.2087 33.9741 2.74434 46.8367 2.74434C59.6992 2.74434 70.1636 13.2087 70.1636 26.0712C70.1636 30.4827 68.9253 34.7792 66.5833 38.4956C66.4819 38.6562 48.1448 67.7325 48.0047 67.9526C48.0017 67.9568 47.9992 67.9612 47.9964 67.9654C47.7419 68.3679 47.3085 68.6085 46.8367 68.6085C46.3644 68.6085 45.929 68.3668 45.6743 67.9661C45.5924 67.8362 27.2503 38.7483 27.0981 38.5056C27.0961 38.5024 27.0941 38.4991 27.0919 38.4956ZM59.8384 63.1152L61.9929 74.4631H31.6804L33.8353 63.1109L39.3693 63.1121L43.3559 69.4345C44.1194 70.6357 45.4208 71.3528 46.8367 71.3528C48.2557 71.3528 49.5565 70.6344 50.3167 69.4309C50.3864 69.3211 54.3005 63.1151 54.3005 63.1151H59.8384V63.1152Z" fill="#373773"/>
<path d="M27.6332 81.0682L26.5915 86.5568C26.5152 86.9583 26.622 87.373 26.8827 87.6879C27.1435 88.0027 27.531 88.185 27.9397 88.185H84.3454C84.7966 88.185 85.2187 87.9632 85.475 87.592C85.7309 87.2208 85.7884 86.7473 85.6283 86.3256L83.5437 80.8369C83.3413 80.3041 82.8309 79.952 82.2608 79.952H28.9814C28.3222 79.9518 27.7562 80.4205 27.6332 81.0682ZM30.1176 82.6961H81.3142L82.3563 85.4405H29.5967L30.1176 82.6961Z" fill="#373773"/>
<path d="M10.1273 80.8369L8.04375 86.3256C7.88366 86.7473 7.94093 87.2208 8.19725 87.592C8.45339 87.9631 8.87565 88.1848 9.32664 88.1848H22.3529C23.0121 88.1848 23.5782 87.7161 23.7011 87.0684L24.7429 81.5797C24.8192 81.1783 24.7123 80.7635 24.4516 80.4487C24.1909 80.1338 23.8034 79.9518 23.3947 79.9518H11.4101C10.8402 79.9518 10.3296 80.3041 10.1273 80.8369ZM21.7375 82.6961L21.2166 85.4405H11.3152L12.3569 82.6961H21.7375Z" fill="#373773"/>
<path d="M27.1125 60.3652L18.8462 60.3634C18.2759 60.3634 17.7653 60.7158 17.5631 61.2485L12.2108 75.3481C12.0507 75.7698 12.1079 76.2433 12.3643 76.6145C12.6204 76.9855 13.0427 77.2072 13.4936 77.2072H24.4364C25.0956 77.2072 25.6617 76.7385 25.7846 76.0909L28.4606 61.993C28.5368 61.5916 28.43 61.177 28.1695 60.8621C27.9088 60.5476 27.5213 60.3654 27.1125 60.3652ZM23.3001 74.4631H15.4822L19.7928 63.1081L25.4553 63.1094L23.3001 74.4631Z" fill="#373773"/>
<path d="M69.2371 77.2074H80.1762C80.6274 77.2074 81.0494 76.9857 81.3058 76.6145C81.5617 76.2433 81.6192 75.7698 81.4591 75.3481L76.1085 61.2603C75.9062 60.7277 75.3957 60.3755 74.826 60.3753L66.5615 60.3735C66.1526 60.3735 65.7649 60.5557 65.5044 60.8706C65.2439 61.1854 65.1368 61.6 65.2131 62.0018L67.889 76.0914C68.0118 76.7389 68.5779 77.2074 69.2371 77.2074ZM73.8788 63.1194L78.1873 74.4631H70.3732L68.2186 63.1182L73.8788 63.1194Z" fill="#373773"/>
<path d="M46.8367 41.1651C55.1593 41.1651 61.9305 34.3939 61.9305 26.0712C61.9305 17.7486 55.1593 10.9774 46.8367 10.9774C38.5138 10.9774 31.7428 17.7486 31.7428 26.0712C31.7428 34.3939 38.5138 41.1651 46.8367 41.1651ZM46.8367 13.7217C53.6463 13.7217 59.1862 19.2616 59.1862 26.0712C59.1862 32.8809 53.6463 38.4208 46.8367 38.4208C40.027 38.4208 34.4871 32.8809 34.4871 26.0712C34.4871 19.2616 40.027 13.7217 46.8367 13.7217Z" fill="#373773"/>
<path d="M46.8367 35.6764C52.1329 35.6764 56.4419 31.3674 56.4419 26.0712C56.4419 20.775 52.1329 16.466 46.8367 16.466C41.5403 16.466 37.2315 20.775 37.2315 26.0712C37.2315 31.3674 41.5403 35.6764 46.8367 35.6764ZM46.8367 19.2104C50.6198 19.2104 53.6975 22.2881 53.6975 26.0712C53.6975 29.8544 50.6198 32.9321 46.8367 32.9321C43.0535 32.9321 39.9758 29.8544 39.9758 26.0712C39.9758 22.2881 43.0535 19.2104 46.8367 19.2104Z" fill="#373773"/>
</svg>
