<svg width="130" height="94" viewBox="0 0 130 94" fill="none" xmlns="http://www.w3.org/2000/svg">
<circle cx="100.561" cy="31.6844" r="28.9286" fill="#FF7143"/>
<circle cx="50.2807" cy="75.0776" r="14.4643" fill="#28D2AE"/>
<path d="M75.287 83.21C93.2493 83.21 107.863 68.794 107.863 51.0744C107.863 33.3547 93.2493 18.9385 75.287 18.9385C57.3247 18.9385 42.7112 33.3545 42.7112 51.0744C42.7112 68.7943 57.3247 83.21 75.287 83.21ZM51.0323 49.3526H46.2552C46.6542 42.7355 49.3363 36.7156 53.5341 32.0498L56.9024 35.3726C57.2431 35.7088 57.6898 35.8768 58.1363 35.8768C58.5828 35.8768 59.0296 35.7088 59.3702 35.3726C60.0518 34.7002 60.0518 33.6102 59.3702 32.9381L56.0019 29.6153C60.7317 25.4742 66.834 22.8283 73.5417 22.4346V27.1473C73.5417 28.098 74.3228 28.8688 75.2868 28.8688C76.2508 28.8688 77.0319 28.098 77.0319 27.1473V22.4346C83.7396 22.8283 89.8419 25.4742 94.5714 29.6153L91.2031 32.9381C90.5216 33.6104 90.5216 34.7005 91.2031 35.3726C91.544 35.7086 91.9907 35.8768 92.4373 35.8768C92.8838 35.8768 93.3305 35.7088 93.6714 35.3726L97.0395 32.0498C101.237 36.7156 103.919 42.7352 104.318 49.3524H99.541C98.577 49.3524 97.7959 50.1231 97.7959 51.0739C97.7959 52.0246 98.577 52.7954 99.541 52.7954H104.318C103.919 59.4126 101.237 65.4324 97.0392 70.098L93.6712 66.7755C92.9894 66.1031 91.8846 66.1031 91.2031 66.7755C90.5216 67.4478 90.5216 68.5379 91.2031 69.21L94.5714 72.5327C89.8417 76.6739 83.7396 79.3197 77.0319 79.7134V75.0007C77.0319 74.05 76.2508 73.2792 75.2868 73.2792C74.3228 73.2792 73.5417 74.05 73.5417 75.0007V79.7134C66.8337 79.3197 60.7317 76.6739 56.0019 72.5327L59.3702 69.2102C60.0518 68.5379 60.0518 67.4478 59.3702 66.7757C58.6885 66.1031 57.5837 66.1034 56.9024 66.7757L53.5341 70.0983C49.3363 65.4324 46.6542 59.4128 46.2552 52.7954H51.0323C51.9961 52.7954 52.7774 52.0246 52.7774 51.0739C52.7774 50.1234 51.9961 49.3526 51.0323 49.3526Z" fill="#373773"/>
<path d="M96.4468 84.2087C90.1216 88.1482 82.8047 90.2304 75.287 90.2304C53.4006 90.2304 35.5946 72.665 35.5946 51.0741C35.5946 42.3331 38.4496 34.0656 43.8506 27.1652C44.4395 26.4127 44.2988 25.3316 43.5358 24.7504C42.7731 24.1695 41.6772 24.3083 41.088 25.061C35.2107 32.5694 32.1044 41.5646 32.1044 51.0741C32.1044 74.5635 51.4761 93.6735 75.287 93.6735C83.4653 93.6735 91.4267 91.4072 98.3101 87.1199C99.1252 86.6124 99.3686 85.5492 98.8541 84.7451C98.3395 83.9413 97.2619 83.7014 96.4468 84.2087Z" fill="#373773"/>
<path d="M85.8117 9.75676V3.23098C85.8117 1.4493 84.3423 0 82.5364 0H68.0371C66.2311 0 64.7619 1.4493 64.7619 3.23098V9.75492C57.8222 11.47 51.3837 14.8727 46.0248 19.7463C45.3163 20.3908 45.2714 21.4797 45.9245 22.1789C46.5779 22.8779 47.682 22.9224 48.3905 22.2778C55.7365 15.5971 65.2885 11.9179 75.2868 11.9179C97.1732 11.9179 114.979 29.4833 114.979 51.0741C114.979 62.1565 110.187 72.768 101.83 80.1872C101.114 80.8232 101.056 81.9117 101.701 82.6184C102.045 82.9963 102.521 83.1881 102.998 83.1881C103.414 83.1881 103.832 83.0424 104.165 82.7463C113.256 74.675 118.469 63.1309 118.469 51.0739C118.47 31.1651 104.552 14.4045 85.8117 9.75676ZM68.2524 9.03968V3.44308H82.3217V9.04312C80.0316 8.67127 77.6822 8.47479 75.2873 8.47479C72.9123 8.47479 70.5608 8.66576 68.2524 9.03968Z" fill="#373773"/>
<path d="M75.287 52.2799C75.9418 52.2799 76.5114 51.9239 76.8099 51.3978L82.8298 45.4592C83.5114 44.7868 83.5114 43.6968 82.8298 43.0244C82.1483 42.3521 81.0436 42.3521 80.3616 43.0244L77.0319 46.3089V37.9252C77.0319 36.9745 76.2508 36.2037 75.2868 36.2037C74.3228 36.2037 73.5417 36.9745 73.5417 37.9252V50.5579C73.5419 51.5091 74.323 52.2799 75.287 52.2799Z" fill="#373773"/>
<path d="M25.752 51.4627C25.752 50.512 24.9706 49.7412 24.0069 49.7412H1.74511C0.781343 49.7412 0 50.512 0 51.4627C0 52.4135 0.781343 53.1843 1.74511 53.1843H24.0069C24.9706 53.1843 25.752 52.4137 25.752 51.4627Z" fill="#373773"/>
<path d="M8.70553 43.1585H26.3339C27.2977 43.1585 28.079 42.3877 28.079 41.437C28.079 40.4862 27.2977 39.7154 26.3339 39.7154H8.70553C7.74177 39.7154 6.96043 40.4862 6.96043 41.437C6.96043 42.3877 7.74154 43.1585 8.70553 43.1585Z" fill="#373773"/>
<path d="M28.6605 29.6894H14.2033C13.2396 29.6894 12.4582 30.4602 12.4582 31.4109C12.4582 32.3617 13.2396 33.1325 14.2033 33.1325H28.6605C29.6243 33.1325 30.4056 32.3617 30.4056 31.4109C30.4056 30.46 29.6243 29.6894 28.6605 29.6894Z" fill="#373773"/>
<path d="M28.0788 60.7115C28.0788 59.7608 27.2975 58.99 26.3337 58.99H8.70553C7.74177 58.99 6.96043 59.7608 6.96043 60.7115C6.96043 61.6623 7.74177 62.4331 8.70553 62.4331H26.3339C27.2975 62.4331 28.0788 61.6623 28.0788 60.7115Z" fill="#373773"/>
<path d="M28.6605 69.016H14.2033C13.2396 69.016 12.4582 69.7868 12.4582 70.7375C12.4582 71.6883 13.2396 72.4591 14.2033 72.4591H28.6605C29.6243 72.4591 30.4056 71.6883 30.4056 70.7375C30.4056 69.7868 29.6243 69.016 28.6605 69.016Z" fill="#373773"/>
</svg>
