<svg width="123" height="109" viewBox="0 0 123 109" fill="none" xmlns="http://www.w3.org/2000/svg">
<circle cx="88.8516" cy="42.0146" r="33.75" fill="#FF7143"/>
<path d="M84.2539 86.0078H101.807V94.7841H84.2539V86.0078Z" fill="#28D2AE"/>
<path d="M7.02344 15.7988H24.5761V24.5752H7.02344V15.7988Z" fill="#FF7143"/>
<path d="M83.1886 8.77637H78.2931C72.8676 8.77637 68.4531 13.1909 68.4531 18.6146C68.4531 20.563 69.0236 22.4499 70.1048 24.0718L72.7799 28.0843H73.7189V23.2327C73.7189 21.9022 74.4702 20.6876 75.6602 20.0926L80.74 17.5527L85.8197 20.0926C87.0098 20.6876 87.7611 21.904 87.7611 23.2327V28.0843H88.7001L91.3734 24.0735C92.4546 22.4516 93.0251 20.563 93.0251 18.6164C93.0269 13.1909 88.6124 8.77637 83.1886 8.77637Z" fill="#FF7143"/>
<path d="M28.0851 66.7002C20.3426 66.7002 14.043 72.9998 14.043 80.7423V89.5187C14.043 92.1638 15.2383 94.6247 17.3183 96.308C19.8933 93.2328 23.7601 91.2739 28.0851 91.2739H26.3298C23.4214 91.2739 21.064 88.9166 21.064 86.0081V81.1566C21.064 79.8261 21.8153 78.6114 23.0054 78.0164L28.0851 75.4765L33.1648 78.0164C34.3549 78.6114 35.1062 79.8278 35.1062 81.1566V86.0081C35.1062 88.9166 32.7488 91.2739 29.8404 91.2739H28.0851C32.4101 91.2739 36.2769 93.2328 38.8519 96.308C40.9319 94.6247 42.1272 92.1638 42.1272 89.5187V80.7423C42.1272 72.9998 35.8276 66.7002 28.0851 66.7002Z" fill="#28D2AE"/>
<path d="M84.2539 84.2539H101.807V87.7644H84.2539V84.2539Z" fill="#373773"/>
<path d="M98.293 91.2734H101.804V94.784H98.293V91.2734Z" fill="#373773"/>
<path d="M91.2734 91.2734H94.784V94.784H91.2734V91.2734Z" fill="#373773"/>
<path d="M84.2539 91.2734H87.7644V94.784H84.2539V91.2734Z" fill="#373773"/>
<path d="M7.02344 14.042H24.5761V17.5525H7.02344V14.042Z" fill="#373773"/>
<path d="M14.043 21.0635H17.5535V24.574H14.043V21.0635Z" fill="#373773"/>
<path d="M21.0625 21.0635H24.573V24.574H21.0625V21.0635Z" fill="#373773"/>
<path d="M7.02344 21.0635H10.534V24.574H7.02344V21.0635Z" fill="#373773"/>
<path d="M84.2528 60.9587V49.1475H103.561C106.464 49.1475 108.827 46.7849 108.827 43.8817V5.2658C108.827 2.36259 106.464 0 103.561 0H57.9238C55.0206 0 52.658 2.36259 52.658 5.2658V17.5527H31.5948V7.02107H0V31.5948H31.5948V21.0632H52.658V24.5737H47.8679L46.3303 29.3726C44.9752 29.8079 43.664 30.3486 42.4178 30.9857L37.9436 28.6828L28.6863 37.9401L30.9892 42.4143C30.3538 43.6587 29.8132 44.9682 29.3761 46.3268L24.5737 47.8679V59.6791H5.2658C2.36259 59.6791 0 62.0417 0 64.9449V103.561C0 106.464 2.36259 108.827 5.2658 108.827H50.9027C53.8059 108.827 56.1685 106.464 56.1685 103.561V91.2739H77.2317V101.805H108.827V77.2317H77.2317V87.7633H56.1685V84.2528H60.9587L62.4963 79.4539C63.8531 79.0168 65.1643 78.478 66.4088 77.8408L70.8829 80.1437L80.1402 70.8864L77.8373 66.4123C78.4727 65.1678 79.0133 63.8584 79.4504 62.4998L84.2528 60.9587ZM28.0843 28.0843H3.51053V10.5316H28.0843V28.0843ZM80.7423 80.7423H105.316V98.2949H80.7423V80.7423ZM70.2107 54.4133C70.2107 62.5296 64.0549 69.2312 56.1685 70.1071V64.9449C56.1685 62.0417 53.8059 59.6791 50.9027 59.6791H39.5321C38.9353 57.994 38.6159 56.23 38.6159 54.4133C38.6159 46.2969 44.7716 39.5953 52.658 38.7194V43.8817C52.658 46.7849 55.0206 49.1475 57.9238 49.1475H69.2944C69.8912 50.8325 70.2107 52.5966 70.2107 54.4133ZM68.5958 45.6369C69.1909 41.5068 71.8396 38.0436 75.4765 36.3077V36.8606C75.4765 39.7638 77.8391 42.1264 80.7423 42.1264C83.6455 42.1264 86.0081 39.7638 86.0081 36.8606V36.3077C89.645 38.0436 92.2937 41.5068 92.8887 45.6369H68.5958ZM78.987 31.5948C77.0509 31.5948 75.4765 30.0203 75.4765 28.0843V23.2327C75.4765 22.564 75.8486 21.9619 76.4471 21.6635L80.7423 19.5151L85.0374 21.6635C85.6359 21.9619 86.0081 22.564 86.0081 23.2327V28.0843C86.0081 30.0203 84.4336 31.5948 82.4975 31.5948H78.987ZM78.987 35.2458C79.5627 35.1633 80.1455 35.1053 80.7423 35.1053C81.3391 35.1053 81.9218 35.1633 82.4975 35.2458V36.8606C82.4975 37.8278 81.7112 38.6159 80.7423 38.6159C79.7734 38.6159 78.987 37.8278 78.987 36.8606V35.2458ZM56.1685 5.2658C56.1685 4.29865 56.9549 3.51053 57.9238 3.51053H103.561C104.53 3.51053 105.316 4.29865 105.316 5.2658V43.8817C105.316 44.8488 104.53 45.6369 103.561 45.6369H96.4361C95.8165 40.0657 92.2867 35.3739 87.407 33.0903C88.7077 31.8142 89.5186 30.0449 89.5186 28.0843V23.2327C89.5186 21.2247 88.4023 19.422 86.6084 18.5233L82.4975 16.4679V12.2869H78.987V16.4679L74.8762 18.5233C73.0823 19.4203 71.9659 21.2247 71.9659 23.2327V28.0843C71.9659 30.0449 72.7769 31.8142 74.0775 33.0903C69.1979 35.3739 65.668 40.0657 65.0484 45.6369H57.9238C56.9549 45.6369 56.1685 44.8488 56.1685 43.8817V5.2658ZM28.0843 50.4271L32.2197 49.1018L32.4759 48.1944C32.9674 46.4584 33.6485 44.8084 34.498 43.2866L34.9596 42.4652L32.9762 38.6124L38.6141 32.9762L42.4652 34.9579L43.2884 34.498C44.8155 33.6432 46.4672 32.9622 48.1979 32.4742L49.1053 32.2179L50.4271 28.0843H52.658V35.1949C42.832 36.0848 35.1053 44.3591 35.1053 54.4133C35.1053 56.2159 35.3704 57.9747 35.8531 59.6791H28.0843V50.4271ZM26.329 89.5186C24.3929 89.5186 22.8185 87.9441 22.8185 86.0081V81.1565C22.8185 80.4878 23.1906 79.8857 23.7891 79.5873L28.0843 77.4389L32.3794 79.5873C32.978 79.8857 33.3501 80.4878 33.3501 81.1565V86.0081C33.3501 87.9441 31.7756 89.5186 29.8395 89.5186H26.329ZM28.0843 93.0291C29.492 93.0291 30.8383 93.2784 32.0986 93.7154L30.8435 96.5397H25.325L24.07 93.7154C25.3303 93.2784 26.6765 93.0291 28.0843 93.0291ZM29.2831 100.05L28.0843 102.748L26.8854 100.05H29.2831ZM35.2212 95.3338C38.3333 97.5665 40.3711 101.203 40.3711 105.316H30.7856L35.2212 95.3338ZM20.9474 95.3338L25.3829 105.316H15.7974C15.7974 101.203 17.8353 97.5665 20.9474 95.3338ZM52.658 103.561C52.658 104.528 51.8716 105.316 50.9027 105.316H43.8817C43.8817 98.9883 40.1342 93.5347 34.749 91.0141C36.0497 89.738 36.8606 87.9687 36.8606 86.0081V81.1565C36.8606 79.1485 35.7442 77.3458 33.9504 76.4471L29.8395 74.3917V70.2107H26.329V74.3917L22.2182 76.4471C20.4243 77.3441 19.3079 79.1485 19.3079 81.1565V86.0081C19.3079 87.9687 20.1189 89.738 21.4195 91.0141C16.0344 93.5347 12.2869 98.9883 12.2869 105.316H5.2658C4.29689 105.316 3.51053 104.528 3.51053 103.561V64.9449C3.51053 63.9777 4.29689 63.1896 5.2658 63.1896H50.9027C51.8716 63.1896 52.658 63.9777 52.658 64.9449V103.561ZM76.6069 59.7229L76.3506 60.6304C75.8591 62.3664 75.1781 64.0163 74.3285 65.5381L73.8669 66.3596L75.8503 70.2124L70.2124 75.8486L66.3596 73.8669L65.5381 74.3268C64.0146 75.1798 62.3629 75.8626 60.6287 76.3506L59.7212 76.6069L58.3995 80.7423H56.1685V73.6317C65.9945 72.7418 73.7212 64.4674 73.7212 54.4133C73.7212 52.6106 73.4562 50.8518 72.9735 49.1475H80.7423V58.3995L76.6069 59.7229Z" fill="#373773"/>
<path d="M7.02344 66.7002H10.534V70.2107H7.02344V66.7002Z" fill="#373773"/>
<path d="M45.6367 66.7002H49.1473V70.2107H45.6367V66.7002Z" fill="#373773"/>
<path d="M59.6797 7.02148H63.1902V10.532H59.6797V7.02148Z" fill="#373773"/>
<path d="M98.293 7.02148H101.804V10.532H98.293V7.02148Z" fill="#373773"/>
</svg>
